<svg id="Layer_1" data-name="Layer 1" xmlns="http://www.w3.org/2000/svg" viewBox="0 0 256 256"><defs><style>.cls-1{fill:#f0de7f;stroke:#70683f;stroke-linecap:round;stroke-linejoin:round;stroke-width:4px;}.cls-2{fill:#70683f;}</style></defs><title>cone</title><polygon class="cls-1" points="128.35 243.41 209.46 20.9 47.23 20.9 128.35 243.41"/><path class="cls-2" d="M97,87.34l5.42-10.91-7.6-3.34L89.29,84l-7.46-3.28,5.48-10.88-7.73-3.4L82.38,60l8.05,3.54,6.2-12.33-8.7-3.83,2.8-6.37,9,3.94,5.48-10.87,7.47,3.28-5.48,10.88,7.66,3.37,5.41-10.91L127.7,44,122.22,54.9l7.72,3.4-2.8,6.37-8-3.54L113,73.49l8.63,3.8-2.8,6.37-9-3.94-5.48,10.87Zm8.54-17.13,6.2-12.34L104,54.51,97.9,66.87Z"/></svg>